<svg width="96" height="96" viewBox="0 0 96 96" fill="none" xmlns="http://www.w3.org/2000/svg">
<path d="M0 96V79.2C0 75.8 0.875 72.675 2.625 69.825C4.375 66.975 6.7 64.8 9.6 63.3C15.8 60.2 22.1 57.875 28.5 56.325C34.9 54.775 41.4 54 48 54C54.6 54 61.1 54.775 67.5 56.325C73.9 57.875 80.2 60.2 86.4 63.3C89.3 64.8 91.625 66.975 93.375 69.825C95.125 72.675 96 75.8 96 79.2V96H0ZM48 48C41.4 48 35.75 45.65 31.05 40.95C26.35 36.25 24 30.6 24 24C24 17.4 26.35 11.75 31.05 7.05C35.75 2.35 41.4 0 48 0C54.6 0 60.25 2.35 64.95 7.05C69.65 11.75 72 17.4 72 24C72 30.6 69.65 36.25 64.95 40.95C60.25 45.65 54.6 48 48 48ZM12 84H84V79.2C84 78.1 83.725 77.1 83.175 76.2C82.625 75.3 81.9 74.6 81 74.1C75.6 71.4 70.15 69.375 64.65 68.025C59.15 66.675 53.6 66 48 66C42.4 66 36.85 66.675 31.35 68.025C25.85 69.375 20.4 71.4 15 74.1C14.1 74.6 13.375 75.3 12.825 76.2C12.275 77.1 12 78.1 12 79.2V84ZM48 36C51.3 36 54.125 34.825 56.475 32.475C58.825 30.125 60 27.3 60 24C60 20.7 58.825 17.875 56.475 15.525C54.125 13.175 51.3 12 48 12C44.7 12 41.875 13.175 39.525 15.525C37.175 17.875 36 20.7 36 24C36 27.3 37.175 30.125 39.525 32.475C41.875 34.825 44.7 36 48 36Z" fill="#515151"/>
</svg>
