<svg width="192" height="96" viewBox="0 0 192 96" fill="none" xmlns="http://www.w3.org/2000/svg">
<path d="M0 96V83.4C0 77.6667 2.93333 73 8.8 69.4C14.6667 65.8 22.4 64 32 64C33.7333 64 35.4 64.0333 37 64.1C38.6 64.1667 40.1333 64.3333 41.6 64.6C39.7333 67.4 38.3333 70.3333 37.4 73.4C36.4667 76.4667 36 79.6667 36 83V96H0ZM48 96V83C48 78.7333 49.1667 74.8333 51.5 71.3C53.8333 67.7667 57.1333 64.6667 61.4 62C65.6667 59.3333 70.7667 57.3333 76.7 56C82.6333 54.6667 89.0667 54 96 54C103.067 54 109.567 54.6667 115.5 56C121.433 57.3333 126.533 59.3333 130.8 62C135.067 64.6667 138.333 67.7667 140.6 71.3C142.867 74.8333 144 78.7333 144 83V96H48ZM156 96V83C156 79.5333 155.567 76.2667 154.7 73.2C153.833 70.1333 152.533 67.2667 150.8 64.6C152.267 64.3333 153.767 64.1667 155.3 64.1C156.833 64.0333 158.4 64 160 64C169.6 64 177.333 65.7667 183.2 69.3C189.067 72.8333 192 77.5333 192 83.4V96H156ZM65 80H127.2C125.867 77.3333 122.167 75 116.1 73C110.033 71 103.333 70 96 70C88.6667 70 81.9667 71 75.9 73C69.8333 75 66.2 77.3333 65 80ZM32 56C27.6 56 23.8333 54.4333 20.7 51.3C17.5667 48.1667 16 44.4 16 40C16 35.4667 17.5667 31.6667 20.7 28.6C23.8333 25.5333 27.6 24 32 24C36.5333 24 40.3333 25.5333 43.4 28.6C46.4667 31.6667 48 35.4667 48 40C48 44.4 46.4667 48.1667 43.4 51.3C40.3333 54.4333 36.5333 56 32 56ZM160 56C155.6 56 151.833 54.4333 148.7 51.3C145.567 48.1667 144 44.4 144 40C144 35.4667 145.567 31.6667 148.7 28.6C151.833 25.5333 155.6 24 160 24C164.533 24 168.333 25.5333 171.4 28.6C174.467 31.6667 176 35.4667 176 40C176 44.4 174.467 48.1667 171.4 51.3C168.333 54.4333 164.533 56 160 56ZM96 48C89.3333 48 83.6667 45.6667 79 41C74.3333 36.3333 72 30.6667 72 24C72 17.2 74.3333 11.5 79 6.9C83.6667 2.3 89.3333 0 96 0C102.8 0 108.5 2.3 113.1 6.9C117.7 11.5 120 17.2 120 24C120 30.6667 117.7 36.3333 113.1 41C108.5 45.6667 102.8 48 96 48ZM96 32C98.2667 32 100.167 31.2333 101.7 29.7C103.233 28.1667 104 26.2667 104 24C104 21.7333 103.233 19.8333 101.7 18.3C100.167 16.7667 98.2667 16 96 16C93.7333 16 91.8333 16.7667 90.3 18.3C88.7667 19.8333 88 21.7333 88 24C88 26.2667 88.7667 28.1667 90.3 29.7C91.8333 31.2333 93.7333 32 96 32Z" fill="#515151"/>
</svg>
