<svg width="94" height="96" viewBox="0 0 94 96" fill="none" xmlns="http://www.w3.org/2000/svg">
<path d="M60 90.84L39.6 70.44L46.32 63.72L60 77.4L87.12 50.28L93.84 57L60 90.84ZM86.4 43.2H76.8V19.2H67.2V33.6H19.2V19.2H9.6V86.4H38.4V96H9.6C6.96 96 4.7 95.06 2.82 93.18C0.94 91.3 0 89.04 0 86.4V19.2C0 16.56 0.94 14.3 2.82 12.42C4.7 10.54 6.96 9.6 9.6 9.6H29.64C30.52 6.8 32.24 4.5 34.8 2.7C37.36 0.9 40.16 0 43.2 0C46.4 0 49.26 0.9 51.78 2.7C54.3 4.5 56 6.8 56.88 9.6H76.8C79.44 9.6 81.7 10.54 83.58 12.42C85.46 14.3 86.4 16.56 86.4 19.2V43.2ZM43.2 19.2C44.56 19.2 45.7 18.74 46.62 17.82C47.54 16.9 48 15.76 48 14.4C48 13.04 47.54 11.9 46.62 10.98C45.7 10.06 44.56 9.6 43.2 9.6C41.84 9.6 40.7 10.06 39.78 10.98C38.86 11.9 38.4 13.04 38.4 14.4C38.4 15.76 38.86 16.9 39.78 17.82C40.7 18.74 41.84 19.2 43.2 19.2Z" fill="#515151"/>
</svg>
