<svg width="104" height="104" viewBox="0 0 104 104" fill="none" xmlns="http://www.w3.org/2000/svg">
<path d="M52.7889 9.43544L52.7896 9.43572L64.343 14.0783L28.5624 28.4562L16.2198 23.4983L51.2104 9.4357L51.211 9.43544C51.7175 9.23149 52.2825 9.23149 52.7889 9.43544ZM48.1459 1.74567L48.1458 1.74571L3.58952 19.6568L3.58895 19.657C2.8237 19.9652 2.1686 20.4962 1.70748 21.1809C1.2464 21.8655 1.00019 22.6726 1 23.4984V23.4986L1 77.8974L1 77.8985C1.00149 79.353 1.43684 80.774 2.2504 81.9782C3.064 83.1824 4.21869 84.1147 5.56596 84.6539L50.464 102.702C50.4641 102.702 50.4643 102.702 50.4645 102.702C51.4502 103.099 52.5504 103.099 53.536 102.702L98.4413 84.6535C99.7872 84.1132 100.94 83.1804 101.753 81.9763C102.565 80.7722 102.999 79.3517 103 77.8981V77.8974V23.4986L103 23.4984C103 22.6726 102.754 21.8655 102.293 21.1809C101.831 20.4962 101.176 19.9651 100.411 19.657L100.41 19.6568L55.8542 1.74571L55.8541 1.74567C53.3801 0.751443 50.6199 0.751443 48.1459 1.74567ZM87.7801 23.4988L51.9999 37.8764L39.6574 32.9187L75.4376 18.541L87.7801 23.4988ZM56.125 92.7399V45.1439L94.75 29.6193V77.2153L56.125 92.7399ZM9.25 29.6191L47.875 45.1377V92.7462L9.25 77.2216V29.6191Z" fill="#515151" stroke="#515151" stroke-width="2"/>
</svg>
