<svg width="140" height="67" viewBox="0 0 140 67" fill="none" xmlns="http://www.w3.org/2000/svg">
<path d="M34.2143 9V12.5H41.2143V9H34.2143ZM37.7143 4V0.5C35.7813 0.5 34.2143 2.067 34.2143 4L37.7143 4ZM99.7143 4H103.214C103.214 2.067 101.647 0.5 99.7143 0.5V4ZM37.7143 48.5H34.2143V55.5H37.7143V48.5ZM29.7143 15.6429H26.2143V22.6429H29.7143V15.6429ZM53.1429 22.6429H56.6429V15.6429H53.1429V22.6429ZM17.7143 27.0714H14.2143V34.0714H17.7143V27.0714ZM45.1429 34.0714H48.6429V27.0714H45.1429V34.0714ZM4 38.5H0.500001L0.499999 45.5H4L4 38.5ZM38.2857 45.5H41.7857V38.5H38.2857V45.5ZM99.7143 12.8571V9.35714H96.2143V12.8571H99.7143ZM124 12.8571L126.926 10.9368L125.889 9.35714H124V12.8571ZM136 31.1429H139.5V30.097L138.926 29.2226L136 31.1429ZM136 52V55.5H139.5V52H136ZM106.861 52L110.36 51.9096L106.861 52ZM45.718 52L49.2168 51.9096L45.718 52ZM67.4249 52L63.9261 51.9095V51.9096L67.4249 52ZM41.2143 9V4H34.2143V9H41.2143ZM37.7143 7.5H99.7143V0.5H37.7143V7.5ZM96.2143 4V52H103.214V4H96.2143ZM29.7143 22.6429H53.1429V15.6429H29.7143V22.6429ZM17.7143 34.0714H45.1429V27.0714H17.7143V34.0714ZM4 45.5L38.2857 45.5V38.5L4 38.5L4 45.5ZM99.7143 16.3571H124V9.35714H99.7143V16.3571ZM121.074 14.7774L133.074 33.0632L138.926 29.2226L126.926 10.9368L121.074 14.7774ZM132.5 31.1429V52H139.5V31.1429H132.5ZM103.214 52V12.8571H96.2143V52H103.214ZM110.357 51.7143C110.357 47.651 113.651 44.3571 117.714 44.3571V37.3571C109.785 37.3571 103.357 43.785 103.357 51.7143H110.357ZM117.714 44.3571C121.778 44.3571 125.071 47.651 125.071 51.7143H132.071C132.071 43.7851 125.644 37.3571 117.714 37.3571V44.3571ZM49.2143 51.7143C49.2143 47.651 52.5082 44.3571 56.5714 44.3571V37.3571C48.6422 37.3571 42.2143 43.7851 42.2143 51.7143H49.2143ZM56.5714 44.3571C60.6347 44.3571 63.9286 47.651 63.9286 51.7143H70.9286C70.9286 43.7851 64.5007 37.3571 56.5714 37.3571V44.3571ZM117.714 59.0714C113.716 59.0714 110.462 55.8816 110.36 51.9096L103.362 52.0904C103.562 59.8468 109.911 66.0714 117.714 66.0714V59.0714ZM110.36 51.9096C110.358 51.8448 110.357 51.7797 110.357 51.7143H103.357C103.357 51.8399 103.359 51.9653 103.362 52.0904L110.36 51.9096ZM99.7143 55.5H106.861V48.5H99.7143V55.5ZM125.071 51.7143C125.071 51.7797 125.071 51.8448 125.069 51.9096L132.067 52.0904C132.07 51.9653 132.071 51.8399 132.071 51.7143H125.071ZM125.069 51.9096C124.966 55.8816 121.712 59.0714 117.714 59.0714V66.0714C125.518 66.0714 131.866 59.8468 132.067 52.0904L125.069 51.9096ZM136 48.5H128.568V55.5H136V48.5ZM45.718 48.5H37.7143V55.5H45.718V48.5ZM56.5714 59.0714C52.5735 59.0714 49.3194 55.8816 49.2168 51.9096L42.2191 52.0904C42.4195 59.8468 48.768 66.0714 56.5714 66.0714V59.0714ZM49.2168 51.9096C49.2151 51.8447 49.2143 51.7796 49.2143 51.7143H42.2143C42.2143 51.84 42.2159 51.9654 42.2191 52.0904L49.2168 51.9096ZM70.9237 52.0905C70.9269 51.9654 70.9286 51.84 70.9286 51.7143H63.9286C63.9286 51.7797 63.9277 51.8448 63.9261 51.9095L70.9237 52.0905ZM99.7143 48.5H67.4249V55.5H99.7143V48.5ZM63.9261 51.9096C63.8234 55.8816 60.5694 59.0714 56.5714 59.0714V66.0714C64.3749 66.0714 70.7234 59.8468 70.9237 52.0904L63.9261 51.9096Z" fill="#515151"/>
</svg>
