<svg width="100" height="100" viewBox="0 0 100 100" fill="none" xmlns="http://www.w3.org/2000/svg">
<path d="M14.8005 1H14.8003H5.20006C4.08614 1 3.01784 1.44249 2.23018 2.23014C1.44251 3.0178 1 4.08608 1 5.2C1 6.31392 1.44251 7.3822 2.23018 8.16986C3.01784 8.95751 4.08614 9.4 5.20006 9.4H11.5226L13.8868 18.898L23.4751 69.9728C23.4752 69.973 23.4752 69.9731 23.4752 69.9733C23.6555 70.9356 24.1662 71.8046 24.9192 72.4303L25.5583 71.6612L24.9192 72.4303C25.5 72.9129 26.1967 73.2273 26.9342 73.3464C25.9618 73.926 25.0565 74.6279 24.2424 75.4419C21.6543 78.0299 20.2004 81.54 20.2004 85.2C20.2004 88.86 21.6543 92.3701 24.2424 94.9581C26.8304 97.5461 30.3406 99 34.0006 99C37.6607 99 41.1708 97.5461 43.7589 94.9581C46.3469 92.3701 47.8009 88.86 47.8009 85.2C47.8009 81.54 46.3469 78.0299 43.7589 75.4419C42.9698 74.6528 42.0949 73.9692 41.1563 73.4H71.6459C70.7072 73.9692 69.8324 74.6528 69.0433 75.4419C66.4552 78.0299 65.0013 81.54 65.0013 85.2C65.0013 88.86 66.4552 92.3701 69.0433 94.9581C71.6313 97.5461 75.1415 99 78.8015 99C82.4616 99 85.9717 97.5461 88.5598 94.9581C91.1478 92.3701 92.6018 88.86 92.6018 85.2C92.6018 81.54 91.1478 78.0299 88.5598 75.4419C87.7459 74.6281 86.8408 73.9263 85.8686 73.3467C86.7354 73.2073 87.5428 72.7985 88.1716 72.1699C88.9592 71.3822 89.4017 70.3139 89.4017 69.2C89.4017 68.0861 88.9592 67.0178 88.1716 66.2302C87.3839 65.4425 86.3156 65 85.2017 65H31.0863L29.6139 57.1557L88.6119 54.1923L88.6122 54.1923C89.5452 54.1452 90.4358 53.7884 91.1432 53.1783C91.8506 52.5683 92.3345 51.7398 92.5183 50.8239L92.5184 50.8233L98.9185 18.8233L98.9185 18.8232C99.0403 18.2141 99.0254 17.5856 98.875 16.9829L97.9048 17.2251L98.875 16.9829C98.7246 16.3803 98.4424 15.8185 98.0487 15.338C97.655 14.8576 97.1596 14.4704 96.5983 14.2045L96.1701 15.1082L96.5983 14.2045C96.0369 13.9385 95.4236 13.8004 94.8025 13.8H94.8019H21.2773L18.8746 4.1836C18.6479 3.27458 18.1237 2.46746 17.3855 1.8906L16.7711 2.67683L17.3855 1.8906C16.6473 1.31374 15.7374 1.00026 14.8005 1ZM28.0512 48.8231L23.0582 22.2H89.678L84.9242 45.9683L28.0512 48.8231ZM34.0006 79.8C35.4329 79.8 36.8064 80.3689 37.8191 81.3816C38.8318 82.3943 39.4008 83.7678 39.4008 85.2C39.4008 86.6322 38.8318 88.0057 37.8191 89.0184C36.8064 90.0311 35.4329 90.6 34.0006 90.6C32.5684 90.6 31.1949 90.0311 30.1822 89.0184C29.1695 88.0057 28.6005 86.6322 28.6005 85.2C28.6005 83.7678 29.1695 82.3943 30.1822 81.3816C31.1949 80.3689 32.5684 79.8 34.0006 79.8ZM78.8015 79.8C80.2337 79.8 81.6073 80.3689 82.62 81.3816C83.6327 82.3943 84.2017 83.7678 84.2017 85.2C84.2017 86.6322 83.6327 88.0057 82.62 89.0184C81.6073 90.0311 80.2337 90.6 78.8015 90.6C77.3693 90.6 75.9958 90.0311 74.9831 89.0184C73.9703 88.0057 73.4014 86.6322 73.4014 85.2C73.4014 83.7678 73.9703 82.3943 74.9831 81.3816C75.9958 80.3689 77.3693 79.8 78.8015 79.8Z" fill="#515151" stroke="#515151" stroke-width="2"/>
</svg>
