<svg width="136" height="100" viewBox="0 0 136 100" fill="none" xmlns="http://www.w3.org/2000/svg">
<path d="M1 98V99H2H98H99V98V81.2C99 77.6185 98.0755 74.3119 96.2272 71.3017C94.3844 68.3006 91.9252 65.9975 88.8594 64.4118L88.8595 64.4117L88.8472 64.4056C82.5833 61.2736 76.2124 58.9218 69.7354 57.3531C63.2581 55.7844 56.6791 55 50 55C43.3209 55 36.7419 55.7844 30.2646 57.3531C23.7876 58.9218 17.4167 61.2736 11.1528 64.4056L11.1527 64.4055L11.1406 64.4118C8.0748 65.9975 5.61565 68.3006 3.77283 71.3017C1.92449 74.3119 1 77.6185 1 81.2V98ZM109 98V99H110H134H135V98V80C135 76.8623 133.966 73.9746 131.94 71.3622C129.935 68.7765 127.067 66.4711 123.386 64.4258L123.386 64.4258L123.374 64.4195C119.417 62.2889 115.161 60.4906 110.607 59.0232C106.04 57.5517 101.176 56.5138 96.0168 55.9069L95.3583 57.7406C99.7473 60.569 103.108 63.9389 105.469 67.8426C107.832 71.7488 109 75.7963 109 80V98ZM76.8357 48.1551L75.8254 49.3525L77.3369 49.7648C78.4897 50.0792 79.9326 50.3611 81.6545 50.6144C83.3791 50.868 84.8322 51 86 51C92.8673 51 98.7711 48.5431 103.657 43.6571C108.543 38.7711 111 32.8673 111 26C111 19.1327 108.543 13.2289 103.657 8.34289C98.7711 3.45685 92.8673 1 86 1C84.5642 1 83.1287 1.07692 81.6935 1.23069C80.2108 1.38955 78.7338 1.73321 77.2637 2.25826L75.9061 2.7431L76.8357 3.84487C79.4619 6.95735 81.4781 10.4072 82.8877 14.1985C84.2958 17.9859 85 21.9178 85 26C85 30.0822 84.2958 34.0141 82.8877 37.8015C81.4781 41.5928 79.4619 45.0427 76.8357 48.1551ZM32.3429 43.6571C37.2289 48.5431 43.1327 51 50 51C56.8673 51 62.7711 48.5431 67.6571 43.6571C72.5432 38.7711 75 32.8673 75 26C75 19.1327 72.5432 13.2289 67.6571 8.34289C62.7711 3.45685 56.8673 1 50 1C43.1327 1 37.2289 3.45685 32.3429 8.34289C27.4569 13.2289 25 19.1327 25 26C25 32.8673 27.4569 38.7711 32.3429 43.6571ZM85 81.2V85H15V81.2C15 80.2757 15.2285 79.4575 15.6783 78.7215C16.1368 77.9712 16.7307 77.3975 17.4676 76.9843C22.7987 74.3204 28.1721 72.3256 33.5884 70.9962C39.0113 69.6651 44.4812 69 50 69C55.5188 69 60.9887 69.6651 66.4116 70.9962C71.8279 72.3256 77.2013 74.3204 82.5324 76.9843C83.2693 77.3975 83.8632 77.9712 84.3217 78.7215C84.7716 79.4575 85 80.2757 85 81.2ZM57.7679 33.7679C55.6039 35.9319 53.0327 37 50 37C46.9673 37 44.3961 35.9319 42.2321 33.7679C40.0681 31.6039 39 29.0327 39 26C39 22.9673 40.0681 20.3961 42.2321 18.2321C44.3961 16.0681 46.9673 15 50 15C53.0327 15 55.6039 16.0681 57.7679 18.2321C59.9319 20.3961 61 22.9673 61 26C61 29.0327 59.9319 31.6039 57.7679 33.7679Z" fill="#515151" stroke="#515151" stroke-width="2"/>
</svg>
