<svg width="89" height="104" viewBox="0 0 89 104" fill="none" xmlns="http://www.w3.org/2000/svg">
<path d="M41.665 1.6265C40.2634 2.55137 37.5877 4.30543 35.6446 5.58111C33.7334 6.8249 29.8472 9.37627 27.044 11.226C17.7108 17.3812 4.45955 25.992 2.4209 27.2677C1.30601 27.9374 0.350393 28.6391 0.222977 28.7985C0.127415 28.958 0.0318604 39.3229 0.0318604 51.8565L0 74.6593L0.796356 75.2015C1.72012 75.8393 7.89978 79.9215 17.6471 86.268C21.597 88.8513 27.3626 92.6464 30.4524 94.6875C33.5741 96.7286 38.0336 99.6627 40.3908 101.194L44.6593 104L48.3225 101.608C50.3611 100.301 57.5601 95.5486 64.3769 91.0518C71.1618 86.555 79.5075 81.0377 82.8522 78.8372L89 74.7869V28.671L85.2731 26.2472C83.2026 24.9077 79.5075 22.5158 77.0547 20.8893C74.602 19.2947 71.3848 17.1579 69.8876 16.2012C67.4349 14.6385 62.3382 11.2579 49.5329 2.8065C47.1757 1.27568 45.0097 0 44.6911 0C44.4044 0 43.0347 0.733518 41.665 1.6265ZM51.3486 9.95032C54.3747 11.9276 58.898 14.8936 61.3826 16.552C63.8672 18.1785 69.9832 22.1969 74.9843 25.418C79.9853 28.671 84.1264 31.3818 84.1901 31.4456C84.4449 31.6688 84.1582 72.2355 83.9034 72.3312C83.7441 72.395 81.7054 73.7025 79.3801 75.2334C77.0548 76.7961 70.8432 80.8783 65.5873 84.3545C60.3314 87.8307 53.5147 92.3594 50.4248 94.4324L44.7867 98.1956L43.2577 97.1113C41.6968 96.0589 30.7072 88.8194 24.2409 84.6734C22.3615 83.4296 18.3797 80.8464 15.4173 78.9328C12.4549 76.9874 8.79169 74.6593 7.29456 73.7026L4.58698 71.9804V31.5731L6.91231 30.0742C12.2638 26.6299 28.7641 15.8822 37.8744 9.88654C43.9266 5.93192 44.6274 5.54922 45.2008 5.93192C45.5512 6.15517 48.3225 7.97301 51.3486 9.95032Z" fill="#47A046"/>
<path d="M38.0336 17.4769C38.0336 20.7298 38.6389 22.5477 40.136 23.9509C41.0916 24.8439 43.0984 26.1515 43.5444 26.1515C43.6718 26.1515 43.7674 25.2266 43.7674 24.1104C43.7674 22.6434 43.8948 22.0374 44.2133 21.9098C44.9141 21.6228 45.0415 21.9736 45.0415 24.1423C45.0415 25.2266 45.1689 26.1515 45.3282 26.1515C46.0609 26.1515 48.8003 23.919 49.6603 22.6434C50.5522 21.3039 50.616 20.9531 50.7115 17.9233C50.8389 14.1601 50.9345 14.2239 48.0677 15.8504C46.475 16.7433 45.2008 18.1785 44.8822 19.5498C44.5956 20.6023 43.9585 20.5385 43.8311 19.4223C43.5762 17.7958 41.0916 15.5314 38.7663 14.8298C38.0337 14.6385 38.0336 14.6703 38.0336 17.4769Z" fill="#47A046"/>
<path d="M27.5218 38.4299C27.5218 47.4554 27.4263 54.8543 27.267 54.8543C27.1396 54.8543 26.5025 54.4079 25.8336 53.8657L24.655 52.9089V45.6694C24.655 41.6829 24.5276 38.2705 24.4001 38.0791C24.0816 37.6007 19.0487 34.1245 18.6664 34.1245C18.3797 34.1245 10.3525 39.4186 8.15462 41.0451L7.10344 41.8424L7.29456 47.6467L9.01468 48.8586C9.9703 49.5284 10.8622 50.0705 11.0215 50.0705C11.1489 50.0705 11.2763 48.7311 11.2763 47.0727C11.2763 44.2981 11.34 44.011 11.9771 43.5645C12.3593 43.2775 12.7734 43.0543 12.869 43.0543C12.9964 43.0543 13.0283 44.904 12.9327 47.1684L12.8053 51.2824L14.175 52.303L15.5766 53.2916L15.7677 46.977C15.8633 43.5008 15.9588 40.6305 15.9907 40.5667C16.0225 40.5348 16.2137 40.5029 16.3729 40.5029C16.5641 40.5029 16.6915 42.9905 16.6915 47.264L16.7233 54.057L26.7255 60.6906L36.7276 67.356L38.9574 65.7933C40.1997 64.9641 41.1553 64.103 41.0916 63.9436C41.0598 63.7522 38.7026 62.0619 35.8676 60.1803L30.7072 56.736V43.2137C30.7072 35.751 30.7709 29.6596 30.8665 29.6596C30.9621 29.6596 31.5354 29.9785 32.1407 30.3612L33.2556 31.0948V54.5035L34.6253 55.3008L35.9631 56.13L36.2817 33.1358L38.6389 34.9218L38.6707 46.4348V57.9479L41.5376 59.9252C43.0984 60.9776 44.4682 61.8706 44.5319 61.8706C44.6274 61.8706 45.4238 61.3603 46.3157 60.7225L47.9084 59.5744V37.9515L51.2849 35.6872C54.4385 33.5823 54.7251 33.4548 55.5533 33.8056C56.063 34.0288 56.7319 34.4753 57.0505 34.8261C57.369 35.1769 58.0061 35.6553 58.4839 35.9105L59.3758 36.3569L59.4395 49.4327L59.5351 62.5084L61.5419 61.169L63.5168 59.8614V32.3067L60.0766 30.0104C58.1972 28.7666 56.4134 27.7461 56.1586 27.7461C55.7445 27.7461 50.0745 31.4456 47.0483 33.7099L45.9971 34.4753V45.9565C45.9971 52.2392 45.8697 57.4057 45.7423 57.4057C45.6149 57.4057 44.8823 56.9592 44.1496 56.4171L42.8117 55.4284V32.2429L38.4478 29.2131C36.0269 27.5547 32.6822 25.2585 31.0258 24.1104C29.3694 22.9623 27.9041 22.0055 27.7767 22.0055C27.6174 22.0055 27.5218 29.4045 27.5218 38.4299ZM20.7688 44.9678C20.8644 50.1662 20.7051 51.6651 20.0361 51.6651C19.622 51.6651 19.5583 50.7403 19.5583 45.8927C19.5583 40.5986 19.5902 40.1521 20.1317 40.2478C20.6095 40.3435 20.6732 40.8537 20.7688 44.9678Z" fill="#47A046"/>
<path d="M67.0208 44.2981V57.3738L71.321 54.5035L75.5895 51.6013L75.7806 42.4164L76.7362 43.1818C77.66 43.9154 77.6919 44.0748 77.8511 47.0408L78.0104 50.1024L79.7624 48.8905L81.5143 47.6467L81.6099 44.4575C81.6736 41.7148 81.6099 41.1726 81.1321 40.7581C80.6861 40.3753 69.2824 32.6256 67.4349 31.4775C67.1163 31.2861 67.0208 33.8056 67.0208 44.2981ZM72.4359 40.5667C72.5315 40.6624 72.5952 43.3732 72.5634 46.5943C72.5634 51.4738 72.4678 52.4624 72.0537 52.7176C71.7989 52.9089 71.321 52.9408 71.0025 52.8132C70.4928 52.6219 70.461 52.1116 70.6203 45.9883C70.7477 42.3527 70.8114 39.3229 70.8433 39.2591C70.8433 39.1316 72.1493 40.184 72.4359 40.5667Z" fill="#47A046"/>
<path d="M50.9026 39.3867C50.616 40.0883 51.2212 40.6624 53.9288 42.4164C55.9356 43.6921 56.3815 43.8835 56.6045 43.5008C57.0505 42.7035 56.7001 42.257 54.2473 40.5348C51.7946 38.8126 51.1893 38.6213 50.9026 39.3867Z" fill="#47A046"/>
<path d="M50.7752 44.5532C50.7752 45.3824 51.0938 45.7013 53.5465 47.2959C56.2541 49.0819 56.7956 49.1776 56.8275 47.9338C56.8275 47.6148 52.145 44.1705 51.1893 43.7878C50.9026 43.6921 50.7752 43.9473 50.7752 44.5532Z" fill="#47A046"/>
<path d="M50.9664 49.337C50.8708 49.4327 50.7752 49.8473 50.7752 50.1981C50.7752 50.6765 51.476 51.3462 53.2598 52.4943C56.7001 54.7906 56.509 54.7268 56.509 53.6106C56.509 52.7495 56.2223 52.4305 54.2155 51.0911C51.2212 49.0819 51.2212 49.0819 50.9664 49.337Z" fill="#47A046"/>
<path d="M7.13528 55.3008V59.0003L12.3275 62.4128C15.1625 64.2625 17.6471 65.7933 17.8064 65.7933C18.2205 65.7933 22.7437 62.5084 22.7437 62.1895C22.7437 62.0301 9.52433 53.0365 7.58124 51.8884C7.19899 51.6651 7.13528 52.303 7.13528 55.3008Z" fill="#47A046"/>
<path d="M73.5827 56.9911C65.9059 62.0938 65.6829 62.2852 66.32 62.7955C66.6704 63.0825 67.8171 63.9755 68.8364 64.7728L70.684 66.2717L76.1947 62.636L81.6736 59.0003V55.3327C81.6736 53.3235 81.6417 51.6651 81.6099 51.6651C81.5462 51.6651 77.9467 54.057 73.5827 56.9911Z" fill="#47A046"/>
<path d="M50.2019 62.349C49.31 62.9868 48.5455 63.5928 48.5455 63.7522C48.5455 64.0393 51.7627 66.5587 52.4954 66.8458C52.8458 66.9733 55.6489 65.3787 56.4453 64.5814C56.5408 64.4857 52.2405 61.2328 52.0175 61.2328C51.922 61.2328 51.1256 61.743 50.2019 62.349Z" fill="#47A046"/>
<path d="M7.13528 66.3993V69.716L11.0533 72.2993C13.1875 73.7026 17.6471 76.6366 20.9918 78.7734L27.044 82.6642L27.9996 82.1221C29.5923 81.261 31.854 79.1242 31.4717 78.8691C30.9939 78.5182 19.9087 71.1512 18.6027 70.322C17.9975 69.9393 15.3536 68.2171 12.7734 66.5268C10.1614 64.8047 7.83607 63.3376 7.58124 63.242C7.19899 63.1144 7.13528 63.6566 7.13528 66.3993Z" fill="#47A046"/>
<path d="M72.2767 69.142C67.3712 72.4269 59.1847 77.9123 54.088 81.3566L44.8504 87.6394L40.0723 84.4821C37.4603 82.7599 35.2305 81.3248 35.1031 81.3248C34.7845 81.3248 31.1213 83.8761 30.6754 84.3864C30.3887 84.7372 31.3762 85.5026 35.549 88.2134C38.384 90.0632 41.5694 92.1681 42.5888 92.8697C43.6081 93.5713 44.6911 94.0816 44.9778 94.0178C45.2645 93.9221 51.7627 89.7124 59.3758 84.6734C66.9889 79.6026 74.9524 74.3723 77.0547 73.0009C79.1571 71.6296 81.0684 70.3539 81.2914 70.1625C81.7055 69.7798 81.8647 63.1463 81.4506 63.1782C81.2914 63.1782 77.1822 65.8571 72.2767 69.142Z" fill="#47A046"/>
<path d="M23.6357 66.0485C22.4252 66.9414 21.4696 67.8025 21.4696 67.962C21.4696 68.3128 28.0634 72.7139 28.573 72.7139C28.9553 72.7139 33.1281 69.9712 33.4148 69.5247C33.5741 69.2696 26.5025 64.422 25.9928 64.422C25.8654 64.422 24.8142 65.1555 23.6357 66.0485Z" fill="#47A046"/>
<path d="M59.5351 66.6544C57.7831 67.8663 56.3497 69.0144 56.3497 69.1739C56.3497 69.6204 60.3314 72.395 60.9366 72.395C61.3826 72.395 67.6578 68.3766 67.6578 68.1214C67.6578 67.9939 62.9435 64.422 62.816 64.422C62.7523 64.422 61.2871 65.4425 59.5351 66.6544Z" fill="#47A046"/>
<path d="M42.5569 67.4836C41.1235 68.4404 39.9449 69.2696 39.9449 69.3652C39.9449 69.6204 44.2452 72.395 44.6593 72.395C44.8822 72.395 46.1564 71.6615 47.4624 70.7685L49.8515 69.1739L47.8447 67.7068C46.7298 66.9095 45.6786 66.1441 45.4875 65.9847C45.2963 65.8252 44.1178 66.4312 42.5569 67.4836Z" fill="#47A046"/>
<path d="M52.0175 71.6933C50.2656 73.0328 45.0097 76.5409 44.723 76.5409C44.5956 76.5409 42.748 75.3928 40.6457 73.9896L36.8232 71.4063L34.4979 73.0328C33.1918 73.9258 32.1407 74.8188 32.1407 75.0101C32.1407 75.2971 41.9835 81.9307 44.1178 83.0788C44.9141 83.4934 45.1689 83.3658 51.3486 79.2199C54.8844 76.8599 57.7831 74.8507 57.7831 74.6912C57.7513 74.4999 55.9037 73.1285 53.6102 71.6296C52.8457 71.1512 52.7502 71.1512 52.0175 71.6933Z" fill="#47A046"/>
</svg>
